<?xml version="1.0" encoding="UTF-8" standalone="no"?>
<!DOCTYPE svg PUBLIC "-//W3C//DTD SVG 1.1//EN" "http://www.w3.org/Graphics/SVG/1.1/DTD/svg11.dtd">
<svg width="100%" height="100%" viewBox="0 0 512 512" version="1.1" xmlns="http://www.w3.org/2000/svg" xmlns:xlink="http://www.w3.org/1999/xlink" xml:space="preserve" xmlns:serif="http://www.serif.com/" style="fill-rule:evenodd;clip-rule:evenodd;stroke-linejoin:round;stroke-miterlimit:2;">
    <g transform="matrix(1.33217,0,0,1.33217,-68.7428,-95.5257)">
        <circle cx="243.77" cy="263.874" r="192.168" style="fill:rgb(228,233,242);"/>
    </g>
    <g transform="matrix(0.648543,0,0,0.648543,89.973,89.973)">
        <path d="M352.9,6L107.4,6C100.1,6 94.1,12 94.1,19.3L94.1,276.1L120.7,276.1L120.7,32.6L352.9,32.6L352.9,124.8L445.1,124.8L445.1,479.4L120.7,479.4L120.7,429.6L94.1,429.6L94.1,492.7C94.1,500 100.1,506 107.4,506L458.4,506C465.7,506 471.7,500 471.7,492.7L471.7,124.8L352.9,6Z" style="fill:rgb(3,89,162);fill-rule:nonzero;"/>
        <rect x="156.2" y="171.4" width="253.4" height="19.6" style="fill:rgb(3,89,162);"/>
        <rect x="156.2" y="209.5" width="213.3" height="19.6" style="fill:rgb(3,89,162);"/>
        <path d="M365.6,288.649L365.6,285.9L40.3,285.9L40.3,419.8L317.581,419.8L365.6,288.649ZM274.724,366.54L258.987,366.54L258.987,401.636L239.233,401.636L239.233,305.764L274.856,305.764C286.181,305.764 294.917,308.288 301.063,313.336C307.208,318.384 310.281,325.518 310.281,334.736C310.281,341.277 308.866,346.731 306.034,351.099C303.203,355.467 298.912,358.946 293.161,361.536L313.903,400.715L313.903,401.636L292.7,401.636L274.724,366.54ZM130.059,401.636L110.305,401.636L110.305,360.548L71.785,360.548L71.785,401.636L52.031,401.636L52.031,305.764L71.785,305.764L71.785,344.613L110.305,344.613L110.305,305.764L130.059,305.764L130.059,401.636ZM202.622,381.882L167.987,381.882L161.402,401.636L140.397,401.636L176.086,305.764L194.391,305.764L230.278,401.636L209.273,401.636L202.622,381.882ZM173.32,365.882L197.288,365.882L185.238,329.995L173.32,365.882ZM258.987,350.539L274.922,350.539C279.882,350.539 283.723,349.277 286.445,346.753C289.166,344.229 290.527,340.75 290.527,336.316C290.527,331.795 289.243,328.239 286.675,325.649C284.107,323.059 280.167,321.764 274.856,321.764L258.987,321.764L258.987,350.539Z" style="fill:rgb(3,89,162);"/>
    </g>
</svg>
