<svg viewBox="0 0 512 512" xmlns="http://www.w3.org/2000/svg" fill-rule="evenodd" clip-rule="evenodd" stroke-linejoin="round" stroke-miterlimit="2"><path fill="#e4e9f2" d="M0 0h512.001v512h-512z"/><g fill="#0359a2"><path d="M312.772 109.53H168.938c-4.277 0-7.792 3.515-7.792 7.792v150.454h15.584V125.114h136.042v54.018h54.019v207.754H176.73V357.71h-15.585v36.97c0 4.277 3.515 7.792 7.792 7.792h205.645c4.277 0 7.792-3.515 7.792-7.792V179.132l-69.603-69.603z"/><path d="M197.529 206.434h148.463v11.484H197.529zM197.529 228.756h124.969v11.484h-124.97zM320.213 275.129v-1.611H129.625v78.45H292.08l28.134-76.84zm-53.243 45.635h-9.22v20.562h-11.573v-56.17h20.87c6.636 0 11.754 1.479 15.355 4.436 3.6 2.958 5.4 7.137 5.4 12.538 0 3.832-.829 7.028-2.488 9.587-1.659 2.56-4.173 4.597-7.542 6.115l12.152 22.954v.54h-12.422l-10.532-20.562zm-84.757 20.562H170.64v-24.073h-22.568v24.073h-11.574v-56.17h11.574v22.76h22.568v-22.76h11.573v56.17zm42.514-11.574h-20.292l-3.858 11.574H188.27l20.91-56.17h10.724l21.026 56.17h-12.307l-3.896-11.574zm-17.168-9.374h14.043l-7.06-21.026-6.983 21.026zm50.191-8.99h9.336c2.906 0 5.156-.739 6.751-2.217 1.594-1.48 2.392-3.517 2.392-6.115 0-2.649-.752-4.732-2.257-6.25-1.505-1.517-3.813-2.276-6.925-2.276h-9.297v16.859z"/></g></svg>
