<svg viewBox="0 0 512 512" xmlns="http://www.w3.org/2000/svg" fill-rule="evenodd" clip-rule="evenodd" stroke-linejoin="round" stroke-miterlimit="2"><circle cx="243.77" cy="263.874" r="192.168" fill="#e4e9f2" transform="translate(-68.743 -95.526) scale(1.33217)"/><g fill="#0359a2"><path d="M318.844 93.864H159.627c-4.735 0-8.626 3.892-8.626 8.626v166.546h17.251v-157.92h150.592v59.795h59.795v229.974H168.252v-32.298h-17.251v40.923c0 4.734 3.891 8.626 8.626 8.626h227.638c4.734 0 8.626-3.892 8.626-8.626V170.911l-77.047-77.047z"/><path d="M191.275 201.133h164.341v12.712h-164.34zm0 24.71H329.61v12.711H191.275zm135.805 51.331v-1.783H116.11v86.84h179.828l31.142-85.057zm-58.937 50.516h-10.206v22.761h-12.811v-62.177h23.103c7.345 0 13.01 1.637 16.996 4.91 3.986 3.275 5.979 7.901 5.979 13.88 0 4.242-.918 7.779-2.755 10.612-1.836 2.833-4.619 5.089-8.348 6.769l13.452 25.409v.597h-13.751l-11.659-22.761zm-93.821 22.761H161.51v-26.647h-24.982v26.647h-12.812v-62.177h12.812v25.195h24.982v-25.195h12.81v62.177zm47.06-12.811H198.92l-4.27 12.811h-13.624l23.146-62.177h11.872l23.274 62.177h-13.622l-4.314-12.811zm-19.004-10.377h15.545l-7.815-23.274-7.73 23.274zm55.56-9.95h10.334c3.217 0 5.708-.819 7.473-2.456 1.765-1.637 2.647-3.893 2.647-6.769 0-2.932-.832-5.238-2.498-6.918-1.665-1.68-4.22-2.52-7.665-2.52h-10.292v18.663z"/></g></svg>
